<mxfile host="app.diagrams.net" modified="2021-06-15T01:32:36.070Z" agent="5.0 (Macintosh; Intel Mac OS X 10_15_7) AppleWebKit/537.36 (KHTML, like Gecko) Chrome/91.0.4472.101 Safari/537.36" etag="ssMevDXeK6pd7vmanJVP" version="14.7.7" type="github">
  <diagram id="8k5BUobeZM2Fq3TYLOyZ" name="Page-1">
    <mxGraphModel dx="946" dy="513" grid="1" gridSize="10" guides="1" tooltips="1" connect="1" arrows="1" fold="1" page="1" pageScale="1" pageWidth="827" pageHeight="1169" math="0" shadow="0">
      <root>
        <mxCell id="0" />
        <mxCell id="1" parent="0" />
        <mxCell id="n1vq1RGN9CpY1nImC2C8-1" value="pankit_find_car_task" style="shape=table;startSize=30;container=1;collapsible=1;childLayout=tableLayout;fixedRows=1;rowLines=0;fontStyle=1;align=center;resizeLast=1;" parent="1" vertex="1">
          <mxGeometry x="80" y="40" width="300" height="460" as="geometry" />
        </mxCell>
        <mxCell id="n1vq1RGN9CpY1nImC2C8-2" value="" style="shape=partialRectangle;collapsible=0;dropTarget=0;pointerEvents=0;fillColor=none;top=0;left=0;bottom=1;right=0;points=[[0,0.5],[1,0.5]];portConstraint=eastwest;" parent="n1vq1RGN9CpY1nImC2C8-1" vertex="1">
          <mxGeometry y="30" width="300" height="30" as="geometry" />
        </mxCell>
        <mxCell id="n1vq1RGN9CpY1nImC2C8-3" value="PK" style="shape=partialRectangle;connectable=0;fillColor=none;top=0;left=0;bottom=0;right=0;fontStyle=1;overflow=hidden;" parent="n1vq1RGN9CpY1nImC2C8-2" vertex="1">
          <mxGeometry width="30" height="30" as="geometry" />
        </mxCell>
        <mxCell id="n1vq1RGN9CpY1nImC2C8-4" value="find_car_task_id" style="shape=partialRectangle;connectable=0;fillColor=none;top=0;left=0;bottom=0;right=0;align=left;spacingLeft=6;fontStyle=5;overflow=hidden;" parent="n1vq1RGN9CpY1nImC2C8-2" vertex="1">
          <mxGeometry x="30" width="270" height="30" as="geometry" />
        </mxCell>
        <mxCell id="n1vq1RGN9CpY1nImC2C8-5" value="" style="shape=partialRectangle;collapsible=0;dropTarget=0;pointerEvents=0;fillColor=none;top=0;left=0;bottom=0;right=0;points=[[0,0.5],[1,0.5]];portConstraint=eastwest;" parent="n1vq1RGN9CpY1nImC2C8-1" vertex="1">
          <mxGeometry y="60" width="300" height="30" as="geometry" />
        </mxCell>
        <mxCell id="n1vq1RGN9CpY1nImC2C8-6" value="" style="shape=partialRectangle;connectable=0;fillColor=none;top=0;left=0;bottom=0;right=0;editable=1;overflow=hidden;" parent="n1vq1RGN9CpY1nImC2C8-5" vertex="1">
          <mxGeometry width="30" height="30" as="geometry" />
        </mxCell>
        <mxCell id="n1vq1RGN9CpY1nImC2C8-7" value="company_id     公司id" style="shape=partialRectangle;connectable=0;fillColor=none;top=0;left=0;bottom=0;right=0;align=left;spacingLeft=6;overflow=hidden;" parent="n1vq1RGN9CpY1nImC2C8-5" vertex="1">
          <mxGeometry x="30" width="270" height="30" as="geometry" />
        </mxCell>
        <mxCell id="n1vq1RGN9CpY1nImC2C8-8" value="" style="shape=partialRectangle;collapsible=0;dropTarget=0;pointerEvents=0;fillColor=none;top=0;left=0;bottom=0;right=0;points=[[0,0.5],[1,0.5]];portConstraint=eastwest;" parent="n1vq1RGN9CpY1nImC2C8-1" vertex="1">
          <mxGeometry y="90" width="300" height="30" as="geometry" />
        </mxCell>
        <mxCell id="n1vq1RGN9CpY1nImC2C8-9" value="" style="shape=partialRectangle;connectable=0;fillColor=none;top=0;left=0;bottom=0;right=0;editable=1;overflow=hidden;" parent="n1vq1RGN9CpY1nImC2C8-8" vertex="1">
          <mxGeometry width="30" height="30" as="geometry" />
        </mxCell>
        <mxCell id="n1vq1RGN9CpY1nImC2C8-10" value=" task_due_time         任务截止日期" style="shape=partialRectangle;connectable=0;fillColor=none;top=0;left=0;bottom=0;right=0;align=left;spacingLeft=6;overflow=hidden;" parent="n1vq1RGN9CpY1nImC2C8-8" vertex="1">
          <mxGeometry x="30" width="270" height="30" as="geometry" />
        </mxCell>
        <mxCell id="n1vq1RGN9CpY1nImC2C8-11" value="" style="shape=partialRectangle;collapsible=0;dropTarget=0;pointerEvents=0;fillColor=none;top=0;left=0;bottom=0;right=0;points=[[0,0.5],[1,0.5]];portConstraint=eastwest;" parent="n1vq1RGN9CpY1nImC2C8-1" vertex="1">
          <mxGeometry y="120" width="300" height="30" as="geometry" />
        </mxCell>
        <mxCell id="n1vq1RGN9CpY1nImC2C8-12" value="" style="shape=partialRectangle;connectable=0;fillColor=none;top=0;left=0;bottom=0;right=0;editable=1;overflow=hidden;" parent="n1vq1RGN9CpY1nImC2C8-11" vertex="1">
          <mxGeometry width="30" height="30" as="geometry" />
        </mxCell>
        <mxCell id="n1vq1RGN9CpY1nImC2C8-13" value="view_times       浏览量" style="shape=partialRectangle;connectable=0;fillColor=none;top=0;left=0;bottom=0;right=0;align=left;spacingLeft=6;overflow=hidden;" parent="n1vq1RGN9CpY1nImC2C8-11" vertex="1">
          <mxGeometry x="30" width="270" height="30" as="geometry" />
        </mxCell>
        <mxCell id="n1vq1RGN9CpY1nImC2C8-14" value="series_id          车型" style="shape=partialRectangle;connectable=0;fillColor=none;top=0;left=0;bottom=0;right=0;align=left;spacingLeft=6;overflow=hidden;" parent="1" vertex="1">
          <mxGeometry x="110" y="190" width="150" height="30" as="geometry" />
        </mxCell>
        <mxCell id="n1vq1RGN9CpY1nImC2C8-15" value="expected_price_daily    期望价格/日" style="shape=partialRectangle;connectable=0;fillColor=none;top=0;left=0;bottom=0;right=0;align=left;spacingLeft=6;overflow=hidden;" parent="1" vertex="1">
          <mxGeometry x="110" y="220" width="210" height="30" as="geometry" />
        </mxCell>
        <mxCell id="n1vq1RGN9CpY1nImC2C8-16" value="expected_price_monthly    期望价格/月" style="shape=partialRectangle;connectable=0;fillColor=none;top=0;left=0;bottom=0;right=0;align=left;spacingLeft=6;overflow=hidden;" parent="1" vertex="1">
          <mxGeometry x="110" y="250" width="220" height="30" as="geometry" />
        </mxCell>
        <mxCell id="n1vq1RGN9CpY1nImC2C8-17" value="rent_begin_time    租期开始时间" style="shape=partialRectangle;connectable=0;fillColor=none;top=0;left=0;bottom=0;right=0;align=left;spacingLeft=6;overflow=hidden;" parent="1" vertex="1">
          <mxGeometry x="110" y="280" width="220" height="30" as="geometry" />
        </mxCell>
        <mxCell id="n1vq1RGN9CpY1nImC2C8-18" value="rent_end_time     租期结束时间" style="shape=partialRectangle;connectable=0;fillColor=none;top=0;left=0;bottom=0;right=0;align=left;spacingLeft=6;overflow=hidden;" parent="1" vertex="1">
          <mxGeometry x="110" y="310" width="220" height="30" as="geometry" />
        </mxCell>
        <mxCell id="n1vq1RGN9CpY1nImC2C8-19" value="remark                 任务需求备注    " style="shape=partialRectangle;connectable=0;fillColor=none;top=0;left=0;bottom=0;right=0;align=left;spacingLeft=6;overflow=hidden;" parent="1" vertex="1">
          <mxGeometry x="110" y="340" width="220" height="30" as="geometry" />
        </mxCell>
        <mxCell id="n1vq1RGN9CpY1nImC2C8-20" value=" company" style="shape=table;startSize=30;container=1;collapsible=1;childLayout=tableLayout;fixedRows=1;rowLines=0;fontStyle=1;align=center;resizeLast=1;" parent="1" vertex="1">
          <mxGeometry x="500" y="40" width="180" height="160" as="geometry" />
        </mxCell>
        <mxCell id="n1vq1RGN9CpY1nImC2C8-21" value="" style="shape=partialRectangle;collapsible=0;dropTarget=0;pointerEvents=0;fillColor=none;top=0;left=0;bottom=1;right=0;points=[[0,0.5],[1,0.5]];portConstraint=eastwest;" parent="n1vq1RGN9CpY1nImC2C8-20" vertex="1">
          <mxGeometry y="30" width="180" height="30" as="geometry" />
        </mxCell>
        <mxCell id="n1vq1RGN9CpY1nImC2C8-22" value="PK" style="shape=partialRectangle;connectable=0;fillColor=none;top=0;left=0;bottom=0;right=0;fontStyle=1;overflow=hidden;" parent="n1vq1RGN9CpY1nImC2C8-21" vertex="1">
          <mxGeometry width="30" height="30" as="geometry" />
        </mxCell>
        <mxCell id="n1vq1RGN9CpY1nImC2C8-23" value="company_id" style="shape=partialRectangle;connectable=0;fillColor=none;top=0;left=0;bottom=0;right=0;align=left;spacingLeft=6;fontStyle=5;overflow=hidden;" parent="n1vq1RGN9CpY1nImC2C8-21" vertex="1">
          <mxGeometry x="30" width="150" height="30" as="geometry" />
        </mxCell>
        <mxCell id="n1vq1RGN9CpY1nImC2C8-24" value="" style="shape=partialRectangle;collapsible=0;dropTarget=0;pointerEvents=0;fillColor=none;top=0;left=0;bottom=0;right=0;points=[[0,0.5],[1,0.5]];portConstraint=eastwest;" parent="n1vq1RGN9CpY1nImC2C8-20" vertex="1">
          <mxGeometry y="60" width="180" height="30" as="geometry" />
        </mxCell>
        <mxCell id="n1vq1RGN9CpY1nImC2C8-25" value="" style="shape=partialRectangle;connectable=0;fillColor=none;top=0;left=0;bottom=0;right=0;editable=1;overflow=hidden;" parent="n1vq1RGN9CpY1nImC2C8-24" vertex="1">
          <mxGeometry width="30" height="30" as="geometry" />
        </mxCell>
        <mxCell id="n1vq1RGN9CpY1nImC2C8-26" value="Row 1" style="shape=partialRectangle;connectable=0;fillColor=none;top=0;left=0;bottom=0;right=0;align=left;spacingLeft=6;overflow=hidden;" parent="n1vq1RGN9CpY1nImC2C8-24" vertex="1">
          <mxGeometry x="30" width="150" height="30" as="geometry" />
        </mxCell>
        <mxCell id="n1vq1RGN9CpY1nImC2C8-27" value="" style="shape=partialRectangle;collapsible=0;dropTarget=0;pointerEvents=0;fillColor=none;top=0;left=0;bottom=0;right=0;points=[[0,0.5],[1,0.5]];portConstraint=eastwest;" parent="n1vq1RGN9CpY1nImC2C8-20" vertex="1">
          <mxGeometry y="90" width="180" height="30" as="geometry" />
        </mxCell>
        <mxCell id="n1vq1RGN9CpY1nImC2C8-28" value="" style="shape=partialRectangle;connectable=0;fillColor=none;top=0;left=0;bottom=0;right=0;editable=1;overflow=hidden;" parent="n1vq1RGN9CpY1nImC2C8-27" vertex="1">
          <mxGeometry width="30" height="30" as="geometry" />
        </mxCell>
        <mxCell id="n1vq1RGN9CpY1nImC2C8-29" value="Row 2" style="shape=partialRectangle;connectable=0;fillColor=none;top=0;left=0;bottom=0;right=0;align=left;spacingLeft=6;overflow=hidden;" parent="n1vq1RGN9CpY1nImC2C8-27" vertex="1">
          <mxGeometry x="30" width="150" height="30" as="geometry" />
        </mxCell>
        <mxCell id="n1vq1RGN9CpY1nImC2C8-30" value="" style="shape=partialRectangle;collapsible=0;dropTarget=0;pointerEvents=0;fillColor=none;top=0;left=0;bottom=0;right=0;points=[[0,0.5],[1,0.5]];portConstraint=eastwest;" parent="n1vq1RGN9CpY1nImC2C8-20" vertex="1">
          <mxGeometry y="120" width="180" height="30" as="geometry" />
        </mxCell>
        <mxCell id="n1vq1RGN9CpY1nImC2C8-31" value="" style="shape=partialRectangle;connectable=0;fillColor=none;top=0;left=0;bottom=0;right=0;editable=1;overflow=hidden;" parent="n1vq1RGN9CpY1nImC2C8-30" vertex="1">
          <mxGeometry width="30" height="30" as="geometry" />
        </mxCell>
        <mxCell id="n1vq1RGN9CpY1nImC2C8-32" value="Row 3" style="shape=partialRectangle;connectable=0;fillColor=none;top=0;left=0;bottom=0;right=0;align=left;spacingLeft=6;overflow=hidden;" parent="n1vq1RGN9CpY1nImC2C8-30" vertex="1">
          <mxGeometry x="30" width="150" height="30" as="geometry" />
        </mxCell>
        <mxCell id="n1vq1RGN9CpY1nImC2C8-33" value="&lt;h1&gt;company&lt;/h1&gt;&lt;p&gt;公司表是已有的现存表&lt;/p&gt;" style="text;html=1;strokeColor=none;fillColor=none;spacing=5;spacingTop=-20;whiteSpace=wrap;overflow=hidden;rounded=0;" parent="1" vertex="1">
          <mxGeometry x="730" y="40" width="190" height="120" as="geometry" />
        </mxCell>
        <mxCell id="n1vq1RGN9CpY1nImC2C8-44" value="" style="edgeStyle=entityRelationEdgeStyle;fontSize=12;html=1;endArrow=ERoneToMany;exitX=0;exitY=0.5;exitDx=0;exitDy=0;entryX=1;entryY=0.5;entryDx=0;entryDy=0;" parent="1" source="n1vq1RGN9CpY1nImC2C8-21" target="n1vq1RGN9CpY1nImC2C8-5" edge="1">
          <mxGeometry width="100" height="100" relative="1" as="geometry">
            <mxPoint x="420" y="330" as="sourcePoint" />
            <mxPoint x="520" y="230" as="targetPoint" />
          </mxGeometry>
        </mxCell>
        <mxCell id="n1vq1RGN9CpY1nImC2C8-46" value="consumer_id         直客id  " style="shape=partialRectangle;connectable=0;fillColor=none;top=0;left=0;bottom=0;right=0;align=left;spacingLeft=6;overflow=hidden;" parent="1" vertex="1">
          <mxGeometry x="110" y="370" width="220" height="30" as="geometry" />
        </mxCell>
        <mxCell id="n1vq1RGN9CpY1nImC2C8-47" value="task_type         任务类型    " style="shape=partialRectangle;connectable=0;fillColor=none;top=0;left=0;bottom=0;right=0;align=left;spacingLeft=6;overflow=hidden;" parent="1" vertex="1">
          <mxGeometry x="110" y="400" width="220" height="30" as="geometry" />
        </mxCell>
        <mxCell id="D6emJO6gncerDsMfMN6X-3" value="" style="shape=umlLifeline;participant=umlActor;perimeter=lifelinePerimeter;whiteSpace=wrap;html=1;container=1;collapsible=0;recursiveResize=0;verticalAlign=top;spacingTop=36;outlineConnect=0;" parent="1" vertex="1">
          <mxGeometry x="90" y="580" width="20" height="530" as="geometry" />
        </mxCell>
        <mxCell id="D6emJO6gncerDsMfMN6X-26" value="" style="edgeStyle=orthogonalEdgeStyle;rounded=0;orthogonalLoop=1;jettySize=auto;html=1;" parent="1" source="D6emJO6gncerDsMfMN6X-4" target="D6emJO6gncerDsMfMN6X-25" edge="1">
          <mxGeometry relative="1" as="geometry">
            <Array as="points">
              <mxPoint x="730" y="765" />
              <mxPoint x="730" y="765" />
            </Array>
          </mxGeometry>
        </mxCell>
        <mxCell id="D6emJO6gncerDsMfMN6X-4" value="" style="shape=umlLifeline;participant=umlActor;perimeter=lifelinePerimeter;whiteSpace=wrap;html=1;container=1;collapsible=0;recursiveResize=0;verticalAlign=top;spacingTop=36;outlineConnect=0;" parent="1" vertex="1">
          <mxGeometry x="740" y="585" width="20" height="535" as="geometry" />
        </mxCell>
        <mxCell id="D6emJO6gncerDsMfMN6X-5" value="系统" style="shape=umlLifeline;perimeter=lifelinePerimeter;whiteSpace=wrap;html=1;container=1;collapsible=0;recursiveResize=0;outlineConnect=0;" parent="1" vertex="1">
          <mxGeometry x="364" y="560" width="100" height="580" as="geometry" />
        </mxCell>
        <mxCell id="D6emJO6gncerDsMfMN6X-30" value="输入文字以及上传图片视频" style="html=1;verticalAlign=bottom;endArrow=open;dashed=1;endSize=8;" parent="D6emJO6gncerDsMfMN6X-5" edge="1">
          <mxGeometry relative="1" as="geometry">
            <mxPoint x="226" y="260" as="sourcePoint" />
            <mxPoint x="66" y="260" as="targetPoint" />
          </mxGeometry>
        </mxCell>
        <mxCell id="D6emJO6gncerDsMfMN6X-34" value="" style="html=1;verticalAlign=bottom;endArrow=open;dashed=1;endSize=8;" parent="D6emJO6gncerDsMfMN6X-5" edge="1">
          <mxGeometry relative="1" as="geometry">
            <mxPoint x="146" y="140" as="sourcePoint" />
            <mxPoint x="-164" y="140" as="targetPoint" />
          </mxGeometry>
        </mxCell>
        <mxCell id="D6emJO6gncerDsMfMN6X-7" value="找车人" style="text;align=center;fontStyle=1;verticalAlign=middle;spacingLeft=3;spacingRight=3;strokeColor=none;rotatable=0;points=[[0,0.5],[1,0.5]];portConstraint=eastwest;" parent="1" vertex="1">
          <mxGeometry x="50" y="540" width="100" height="26" as="geometry" />
        </mxCell>
        <mxCell id="D6emJO6gncerDsMfMN6X-8" value="租车行" style="text;align=center;fontStyle=1;verticalAlign=middle;spacingLeft=3;spacingRight=3;strokeColor=none;rotatable=0;points=[[0,0.5],[1,0.5]];portConstraint=eastwest;" parent="1" vertex="1">
          <mxGeometry x="700" y="540" width="100" height="26" as="geometry" />
        </mxCell>
        <mxCell id="D6emJO6gncerDsMfMN6X-18" value="发布任务" style="html=1;verticalAlign=bottom;endArrow=block;" parent="1" edge="1">
          <mxGeometry width="80" relative="1" as="geometry">
            <mxPoint x="200" y="650" as="sourcePoint" />
            <mxPoint x="280" y="650" as="targetPoint" />
          </mxGeometry>
        </mxCell>
        <mxCell id="D6emJO6gncerDsMfMN6X-19" value="同步任务信息" style="html=1;verticalAlign=bottom;endArrow=block;" parent="1" edge="1">
          <mxGeometry width="80" relative="1" as="geometry">
            <mxPoint x="550" y="680" as="sourcePoint" />
            <mxPoint x="630" y="680" as="targetPoint" />
          </mxGeometry>
        </mxCell>
        <mxCell id="D6emJO6gncerDsMfMN6X-39" value="" style="edgeStyle=orthogonalEdgeStyle;rounded=0;orthogonalLoop=1;jettySize=auto;html=1;entryX=1;entryY=0.5;entryDx=0;entryDy=0;" parent="1" source="D6emJO6gncerDsMfMN6X-25" target="D6emJO6gncerDsMfMN6X-27" edge="1">
          <mxGeometry relative="1" as="geometry">
            <Array as="points">
              <mxPoint x="680" y="765" />
              <mxPoint x="680" y="728" />
            </Array>
          </mxGeometry>
        </mxCell>
        <mxCell id="D6emJO6gncerDsMfMN6X-25" value="" style="html=1;points=[];perimeter=orthogonalPerimeter;" parent="1" vertex="1">
          <mxGeometry x="690" y="685" width="10" height="160" as="geometry" />
        </mxCell>
        <mxCell id="D6emJO6gncerDsMfMN6X-38" value="" style="edgeStyle=orthogonalEdgeStyle;rounded=0;orthogonalLoop=1;jettySize=auto;html=1;" parent="1" source="D6emJO6gncerDsMfMN6X-27" target="D6emJO6gncerDsMfMN6X-33" edge="1">
          <mxGeometry relative="1" as="geometry" />
        </mxCell>
        <mxCell id="D6emJO6gncerDsMfMN6X-27" value="电话联系" style="html=1;" parent="1" vertex="1">
          <mxGeometry x="610" y="712.5" width="60" height="30" as="geometry" />
        </mxCell>
        <mxCell id="D6emJO6gncerDsMfMN6X-40" value="" style="edgeStyle=orthogonalEdgeStyle;rounded=0;orthogonalLoop=1;jettySize=auto;html=1;entryX=1;entryY=0.5;entryDx=0;entryDy=0;" parent="1" source="D6emJO6gncerDsMfMN6X-28" target="D6emJO6gncerDsMfMN6X-32" edge="1">
          <mxGeometry relative="1" as="geometry">
            <Array as="points">
              <mxPoint x="560" y="700" />
              <mxPoint x="560" y="700" />
            </Array>
          </mxGeometry>
        </mxCell>
        <mxCell id="D6emJO6gncerDsMfMN6X-28" value="" style="html=1;points=[];perimeter=orthogonalPerimeter;" parent="1" vertex="1">
          <mxGeometry x="570" y="685" width="10" height="85" as="geometry" />
        </mxCell>
        <mxCell id="D6emJO6gncerDsMfMN6X-29" value="我有车" style="html=1;" parent="1" vertex="1">
          <mxGeometry x="610" y="800" width="60" height="30" as="geometry" />
        </mxCell>
        <mxCell id="D6emJO6gncerDsMfMN6X-32" value="打通" style="html=1;" parent="1" vertex="1">
          <mxGeometry x="490" y="685" width="60" height="30" as="geometry" />
        </mxCell>
        <mxCell id="D6emJO6gncerDsMfMN6X-37" value="" style="edgeStyle=orthogonalEdgeStyle;rounded=0;orthogonalLoop=1;jettySize=auto;html=1;" parent="1" source="D6emJO6gncerDsMfMN6X-33" target="D6emJO6gncerDsMfMN6X-36" edge="1">
          <mxGeometry relative="1" as="geometry">
            <Array as="points">
              <mxPoint x="520" y="790" />
              <mxPoint x="640" y="790" />
            </Array>
          </mxGeometry>
        </mxCell>
        <mxCell id="D6emJO6gncerDsMfMN6X-33" value="电话占线" style="html=1;" parent="1" vertex="1">
          <mxGeometry x="490" y="740" width="60" height="30" as="geometry" />
        </mxCell>
        <mxCell id="D6emJO6gncerDsMfMN6X-36" value="" style="shape=waypoint;size=6;pointerEvents=1;points=[];fillColor=#ffffff;resizable=0;rotatable=0;perimeter=centerPerimeter;snapToPoint=1;" parent="1" vertex="1">
          <mxGeometry x="620" y="780" width="40" height="40" as="geometry" />
        </mxCell>
        <mxCell id="D6emJO6gncerDsMfMN6X-41" value="通知找车人" style="html=1;verticalAlign=bottom;endArrow=open;dashed=1;endSize=8;" parent="1" edge="1">
          <mxGeometry relative="1" as="geometry">
            <mxPoint x="380" y="820" as="sourcePoint" />
            <mxPoint x="140" y="820" as="targetPoint" />
          </mxGeometry>
        </mxCell>
        <mxCell id="D6emJO6gncerDsMfMN6X-50" value="" style="edgeStyle=orthogonalEdgeStyle;rounded=0;orthogonalLoop=1;jettySize=auto;html=1;" parent="1" source="D6emJO6gncerDsMfMN6X-43" target="D6emJO6gncerDsMfMN6X-48" edge="1">
          <mxGeometry relative="1" as="geometry">
            <Array as="points">
              <mxPoint x="150" y="945" />
              <mxPoint x="150" y="945" />
            </Array>
          </mxGeometry>
        </mxCell>
        <mxCell id="D6emJO6gncerDsMfMN6X-55" value="" style="edgeStyle=orthogonalEdgeStyle;rounded=0;orthogonalLoop=1;jettySize=auto;html=1;" parent="1" source="D6emJO6gncerDsMfMN6X-43" target="D6emJO6gncerDsMfMN6X-53" edge="1">
          <mxGeometry relative="1" as="geometry" />
        </mxCell>
        <mxCell id="D6emJO6gncerDsMfMN6X-43" value="" style="html=1;points=[];perimeter=orthogonalPerimeter;" parent="1" vertex="1">
          <mxGeometry x="130" y="800" width="10" height="160" as="geometry" />
        </mxCell>
        <mxCell id="D6emJO6gncerDsMfMN6X-48" value="" style="ellipse;html=1;shape=endState;fillColor=#000000;strokeColor=#ff0000;" parent="1" vertex="1">
          <mxGeometry x="190" y="932" width="30" height="30" as="geometry" />
        </mxCell>
        <mxCell id="D6emJO6gncerDsMfMN6X-49" value="没兴趣" style="text;align=center;fontStyle=1;verticalAlign=middle;spacingLeft=3;spacingRight=3;strokeColor=none;rotatable=0;points=[[0,0.5],[1,0.5]];portConstraint=eastwest;" parent="1" vertex="1">
          <mxGeometry x="210" y="932" width="80" height="26" as="geometry" />
        </mxCell>
        <mxCell id="D6emJO6gncerDsMfMN6X-53" value="" style="ellipse;html=1;shape=endState;fillColor=#000000;strokeColor=#ff0000;" parent="1" vertex="1">
          <mxGeometry x="190" y="865" width="30" height="30" as="geometry" />
        </mxCell>
        <mxCell id="D6emJO6gncerDsMfMN6X-56" value="有兴趣电话沟通，并关闭任务" style="text;align=center;fontStyle=1;verticalAlign=middle;spacingLeft=3;spacingRight=3;strokeColor=none;rotatable=0;points=[[0,0.5],[1,0.5]];portConstraint=eastwest;" parent="1" vertex="1">
          <mxGeometry x="230" y="865" width="160" height="26" as="geometry" />
        </mxCell>
        <mxCell id="D6emJO6gncerDsMfMN6X-58" value="" style="whiteSpace=wrap;html=1;aspect=fixed;" parent="1" vertex="1">
          <mxGeometry x="1040" y="663" width="417" height="417" as="geometry" />
        </mxCell>
        <mxCell id="D6emJO6gncerDsMfMN6X-60" value="任务详情" style="rounded=0;whiteSpace=wrap;html=1;" parent="1" vertex="1">
          <mxGeometry x="1070" y="685" width="370" height="155" as="geometry" />
        </mxCell>
        <mxCell id="D6emJO6gncerDsMfMN6X-61" value="泛卡有车" style="rounded=1;whiteSpace=wrap;html=1;" parent="1" vertex="1">
          <mxGeometry x="1070" y="865" width="370" height="60" as="geometry" />
        </mxCell>
        <mxCell id="D6emJO6gncerDsMfMN6X-62" value="帕巴卡有车" style="rounded=1;whiteSpace=wrap;html=1;" parent="1" vertex="1">
          <mxGeometry x="1070" y="950" width="370" height="60" as="geometry" />
        </mxCell>
        <mxCell id="vVI8m5l-i4yVUp7lAFZU-1" value="智享调车接口调用时序图" style="text;html=1;strokeColor=none;fillColor=none;align=center;verticalAlign=middle;whiteSpace=wrap;rounded=0;" vertex="1" parent="1">
          <mxGeometry x="2220" y="10" width="400" height="50" as="geometry" />
        </mxCell>
      </root>
    </mxGraphModel>
  </diagram>
</mxfile>
